<svg role="img" viewBox="0 0 24 24" xmlns="http://www.w3.org/2000/svg" fill="#FF9900"><title>Amazon AWS</title><path d="M11.13 1.286l.044.025.26.155a5.533 5.533 0 0 1 .458.303 6.945 6.945 0 0 1 1.708 1.905 6.703 6.703 0 0 1 1.05 3.327c-.012.396-.134.787-.278 1.16-.165.428-.38.835-.618 1.229-.4 1.185-1.047 2.228-1.583 3.325a1.868 1.868 0 0 1-.226.406c-.15.207-.37.31-.565.344-.225 0-.44-.067-.64-.15-.173-.13-.347-.267-.5-.417-.796-.788-1.398-1.748-1.926-2.678-.5-.877-.963-1.79-1.285-2.75a6.47 6.47 0 0 1-.365-1.162c-.067-.34-.1-.685-.104-1.033.004-.347.042-.693.125-1.031.146-.59.418-1.144.755-1.637.525-.768 1.25-1.298 2.05-1.649.385-.17.79-.283 1.21-.33.376-.042.756-.046 1.13 \.04ZM12 0C5.373 0 0 5.373 0 12s5.373 12 12 12 12-5.373 12-12S18.627 0 12 0Zm0 22c-5.523 0-10-4.477-10-10S6.477 2 12 2s10 4.477 10 10-4.477 10-10 10Z"/></svg>